<?xml version="1.0" ?><!DOCTYPE svg  PUBLIC '-//W3C//DTD SVG 1.1//EN'  'http://www.w3.org/Graphics/SVG/1.1/DTD/svg11.dtd'><svg enable-background="new 0 0 153.698 153.269" height="153.269px" id="icons" version="1.1" viewBox="0 0 153.698 153.269" width="153.698px" xml:space="preserve" xmlns="http://www.w3.org/2000/svg" xmlns:xlink="http://www.w3.org/1999/xlink"><g><path d="M111.721,146.468c7.327-1.434,17.623-8.594,18.473-9.111c19.693-11.994,19.393-42.992,18.347-62.731   c-1.091-20.562,0.675-44.781-14.77-60.172C120.45,1.179,100.903,3.12,82.808,2.038c-20.606-1.23-43.482-0.264-60.409,12.838   C7.85,26.136,3.694,45.652,3.324,63.056C3.103,73.394,5.978,83.64,5.822,93.961c-0.78,51.535,45.563,54.256,66.59,55.654   C85.473,150.484,98.894,148.976,111.721,146.468z" fill="#FEE000"/><path d="M153.213,110.045l-0.182-4.262c-0.015-1.416,0.037-2.833,0.062-4.25l0.224-8.509l0.065-2.128l0.038-2.177l0.059-4.265   l0.068-17.059l0.024-2.132l0.06-2.078c0.026-1.418,0.084-2.836,0.063-4.256c-0.006-0.71,0.005-1.419-0.014-2.13l-0.095-2.133   l-0.383-4.276c-0.083-1.427-0.201-2.854-0.091-4.281l0.275-4.296c0.166-2.875,0.256-5.768,0.286-8.648   c0.016-1.439,0.021-2.878,0.003-4.311l-0.026-2.149c-0.006-0.763-0.063-1.609-0.18-2.398c-0.224-1.599-0.571-3.176-1.096-4.687   c-0.536-1.507-1.196-2.96-1.965-4.348c-3.071-5.533-7.876-10.129-13.774-12.688c-2.933-1.275-6.145-1.993-9.314-2.139   c-3.014-0.147-5.849-0.112-8.722-0.092c-5.723-0.012-11.406,0.048-17.091-0.076l-8.514-0.005l-4.25,0.054h-4.245   c-2.822,0-5.676-0.185-8.426-0.154c-2.79,0.001-5.62-0.142-8.456-0.17C61.937,0.001,56.22-0.023,50.49,0.122   C44.761,0.188,39.021,0.355,33.24,0.63c-2.917,0.173-5.726,0.393-8.8,0.842c-3.108,0.53-6.073,1.582-8.814,3.029   C10.162,7.4,5.499,11.938,2.751,17.639c-1.366,2.845-2.208,5.954-2.422,9.13l-0.035,0.612l-0.147,0.533L0,29.046v2.169l0.191,4.299   l0.496,17.06c0.07,5.67,0.066,11.338-0.1,16.949c-0.051,1.402-0.084,2.8-0.163,4.187L0.297,75.8   c-0.051,0.741-0.089,1.465-0.117,2.188l-0.065,4.311c-0.014,1.431-0.027,2.858,0.046,4.287c0.076,2.855,0.428,5.709,0.502,8.558   c0.133,2.849,0.048,5.695-0.046,8.543c-0.238,5.696-0.486,11.392-0.578,17.109c-0.023,1.431-0.058,2.863-0.009,4.301   c0.028,1.384,0.07,3.035,0.315,4.557c0.465,3.092,1.387,6.171,2.857,9.011c1.467,2.845,3.567,5.356,5.998,7.409   c2.504,1.979,5.335,3.463,8.293,4.443c2.949,0.982,6.081,1.45,9.108,1.429c2.893-0.043,5.731,0.027,8.583,0.129   c5.699,0.15,11.393,0.207,17.085,0.265c11.386,0.085,22.77,0.146,34.152,0.106c5.624-0.061,11.267,0.101,16.934,0.319   c5.668,0.213,11.361,0.514,17.126,0.504c1.44,0.002,2.886-0.016,4.337-0.059l2.171-0.085c0.785-0.035,1.591-0.106,2.374-0.223   c1.574-0.23,3.112-0.625,4.592-1.148c1.488-0.503,2.923-1.14,4.291-1.886c1.369-0.746,2.663-1.61,3.929-2.516   c1.27-0.899,2.538-1.83,3.732-2.873c1.17-1.06,2.334-2.177,3.278-3.48c0.961-1.29,1.741-2.718,2.384-4.216   c0.649-1.494,1.173-3.059,1.532-4.681c0.18-0.813,0.316-1.632,0.408-2.474c0.091-0.95,0.08-1.593,0.104-2.342   c0.058-2.916,0.031-5.805-0.064-8.675C153.462,115.743,153.338,112.889,153.213,110.045z M139.439,117.858   c-2.003-2.313-3.896-4.726-5.855-7.08c-1.975-2.34-4.061-4.583-6.082-6.884c-4.034-4.607-8.204-9.101-12.322-13.641   c-1.022-1.142-2.088-2.246-3.191-3.317c-1.102-1.073-2.262-2.096-3.314-3.212c-1.097-1.078-2.084-2.251-2.953-3.522l-0.653-0.914   c1.046-0.907,2.077-1.831,3.055-2.809c2.949-2.963,5.899-5.92,8.801-8.921c5.81-5.993,11.512-12.076,17.161-18.195l14.544-15.817   c0.279,5.566,0.213,11.098,0.066,16.737c-0.123,5.696-0.321,11.339-0.331,17.113l-0.007,17.059l-0.02,4.265   c-0.007,0.692,0.001,1.465-0.019,2.09l-0.046,2.135l-0.147,8.548l-0.025,2.139l-0.098,1.07c-0.004,0.356,0,0.714,0,1.07v4.269   l0.045,8.496c-0.039,2.822-0.07,5.631-0.23,8.416c-0.009,0.142,0.005,0.287-0.004,0.432   C144.991,124.233,142.221,121.052,139.439,117.858z M5.514,28.109l0.022-0.533l0.032-0.445c0.193-2.476,0.878-4.924,1.988-7.172   c1.105-2.255,2.639-4.313,4.445-6.116c1.767-1.851,3.865-3.378,6.065-4.741c2.223-1.329,4.657-2.338,7.182-2.906   c2.575-0.52,5.436-0.86,8.21-1.14c5.599-0.558,11.271-0.761,16.945-0.884c2.838-0.06,5.68-0.091,8.523-0.111l8.531,0.064   c2.844,0.056,5.687,0.163,8.534,0.191c2.852-0.001,5.693,0.079,8.539,0.106L88.8,4.461l4.27,0.125l8.541,0.247   c5.693,0.206,11.388,0.242,17.055,0.346c2.822,0.025,5.678,0.043,8.398,0.225c2.614,0.178,5.136,0.841,7.481,1.933   c4.691,2.165,8.615,5.997,11.039,10.578c1.211,2.287,2.059,4.755,2.451,7.253c0.051,0.335,0.092,0.659,0.127,0.988   c-0.555,0.126-1.078,0.413-1.495,0.86l-17,18.268c-5.666,6.063-11.371,12.078-17.167,17.985c-2.921,2.931-5.69,6.011-8.879,8.661   c-0.43,0.299-0.88,0.576-1.283,0.901c-0.404,0.324-0.76,0.698-1.128,1.059l-1.644,1.605c-0.076,0.032-0.154,0.057-0.229,0.097   c-0.573,0.309-0.99,0.787-1.242,1.336l-3.525,3.424c-5.339,5.155-10.878,10.114-16.679,14.539   c-5.935-4.208-11.692-8.744-17.333-13.441c-6.282-5.205-12.383-10.664-18.241-16.391l-8.85-8.536l-2.205-2.146l-2.157-2.198   c-1.454-1.449-3.149-2.647-4.86-3.83c-0.867-0.579-1.689-1.206-2.515-1.829c-0.825-0.624-1.47-1.439-2.202-2.16l-4.396-4.337   c-2.95-2.871-5.863-5.805-8.849-8.662c-0.242-0.231-0.519-0.404-0.81-0.536l0.017-1.719L5.514,28.109z M5.411,128.353   c-0.141-1.103-0.173-2.183-0.205-3.426c-0.055-1.405-0.016-2.819,0.011-4.234c0.064-2.83,0.274-5.666,0.306-8.5   c0.069-2.835-0.005-5.67-0.139-8.507C5.071,98.014,4.787,92.336,4.57,86.662c-0.105-2.836-0.234-5.676-0.289-8.499   c-0.002-1.41,0.002-2.792,0.086-4.254c0.08-1.435,0.087-2.867,0.204-4.296c0.267-5.713,1-11.428,1.132-17.135   c0.016-4.531-0.101-9.057-0.171-13.565c1.834,1.814,3.696,3.6,5.628,5.322c3.026,2.763,6.185,5.397,9.107,8.287   c5.945,5.671,11.909,11.345,17.942,16.962c3.367,3.173,6.799,6.284,10.286,9.339c-0.58,0.582-1.139,1.164-1.706,1.735   c-1.085,1.095-2.1,2.231-3.155,3.322c-2.096,2.197-4.073,4.472-6.258,6.564c-2.155,2.118-4.3,4.242-6.336,6.456   c-1.015,1.109-1.948,2.286-2.88,3.463c-0.929,1.18-1.879,2.34-2.781,3.539l-5.48,7.129l-2.742,3.557   c-0.929,1.173-1.938,2.278-2.955,3.376c-2.035,2.193-4.056,4.395-5.859,6.765L5.411,128.353z M135.807,145.564   c-2.239,1.269-4.672,2.157-7.148,2.518c-0.622,0.092-1.232,0.146-1.867,0.174l-2.09,0.07c-1.392,0.033-2.789,0.042-4.191,0.032   c-11.229-0.117-22.654-0.983-34.149-0.811l-17.042-0.069c-5.681-0.043-11.359,0.034-17.037,0.067   c-5.678,0.029-11.356,0.037-17.025-0.006c-2.829-0.029-5.676-0.039-8.463-0.16c-2.631-0.085-5.157-0.582-7.583-1.48   c-4.837-1.775-8.986-5.226-11.36-9.719c-0.164-0.309-0.302-0.631-0.45-0.947c3.983-4.436,7.67-8.952,11.433-13.439   c3.908-4.545,7.286-9.511,10.942-14.244c0.888-1.206,1.859-2.341,2.788-3.511c0.943-1.158,1.834-2.36,3.014-3.317   c1.138-0.993,2.365-1.907,3.311-3.058c0.479-0.57,0.974-1.126,1.442-1.704l1.367-1.768c1.768-2.403,3.786-4.586,5.795-6.745   c1.66-1.772,3.368-3.561,5.119-5.071c1.384,1.174,2.772,2.342,4.176,3.494c6.382,5.265,12.925,10.366,19.791,15.076l0.069,0.049   c0.784,0.535,1.854,0.547,2.66-0.05c3.423-2.528,6.682-5.202,9.885-7.923c3.205-2.719,6.245-5.601,9.408-8.343   c0.646-0.546,1.302-1.084,1.957-1.621c0.26,0.296,0.528,0.584,0.804,0.866c1.121,1.063,2.229,2.135,3.192,3.332   c2.018,2.314,3.962,4.692,6.043,6.952l12.557,13.494l3.08,3.425c1.028,1.141,2.073,2.267,3.002,3.494   c0.924,1.233,1.816,2.495,2.713,3.754c0.902,1.254,1.875,2.445,2.889,3.602c3.627,4.25,7.455,8.325,11.288,12.416   C144.005,139.023,140.262,143.03,135.807,145.564z"/></g></svg>