<?xml version="1.0" ?><svg enable-background="new 0 0 32 32" version="1.1" viewBox="0 0 32 32" xml:space="preserve" xmlns="http://www.w3.org/2000/svg" xmlns:xlink="http://www.w3.org/1999/xlink"><g id="Outline_Sketch"><path d="M31.465,0.259c-10.275,0-20.551,0-30.826,0c-0.004,0-0.008,0.002-0.012,0.002c-0.046,0.003-0.09,0.012-0.135,0.022   C0.459,0.29,0.424,0.294,0.394,0.306C0.177,0.378,0,0.525,0,0.726c0,2.134,0,4.268,0,6.402c0,0.3,0.281,0.377,0.535,0.377   c10.275,0,20.551,0,30.826,0C31.586,7.504,32,7.308,32,7.037c0-2.134,0-4.268,0-6.402C32,0.336,31.719,0.259,31.465,0.259z    M24.889,6.661c-4.403,0-8.807,0-13.21,0c-3.023,0-7.145,0.789-10.068,0c-0.355-0.096-0.55-0.073-0.649-0.034   C1.036,6.511,1.136,6.24,1.174,5.655C1.272,4.15,1.195,2.616,1.18,1.102c6.38,0,12.761,0,19.141,0c3.005,0,7.161-0.787,10.068,0   c0.207,0.056,0.354,0.075,0.464,0.076c-0.036,0.115-0.054,0.296-0.026,0.571c0.075,0.757,0.081,5.295,0.299,5.055   C31.121,6.808,26.108,6.661,24.889,6.661z"/><path d="M31.625,12.499c-10.269,0-20.538,0-30.807,0c-0.344-0.043-0.815,0.146-0.815,0.438c0,2.134,0,4.268,0,6.402   c0,0.202,0.175,0.324,0.372,0.324c10.275,0,20.551,0,30.826,0c0.222,0,0.795-0.104,0.795-0.438c0-2.134,0-4.268,0-6.402   C31.997,12.622,31.822,12.499,31.625,12.499z M25.049,18.901c-4.403,0-8.807,0-13.21,0c-2.932,0-7.264,0.872-10.068,0   c-0.408-0.127-0.604-0.095-0.688-0.053c0.054-0.102,0.125-0.37,0.088-1.006c-0.09-1.516-0.019-3.058-0.005-4.581   c6.332,0,12.664,0,18.996,0c2.908,0,7.285-0.87,10.068,0c0.275,0.086,0.448,0.106,0.556,0.098c-0.024,0.11-0.023,0.293,0.044,0.602   c0.113,0.522,0.07,3.891,0.237,4.841c-0.286,0.006-0.811,0.118-1.289,0.099C28.206,18.839,26.621,18.901,25.049,18.901z"/><path d="M31.656,24.816c-10.275,0-20.551,0-30.826,0c-0.005,0-0.013,0.002-0.018,0.003C0.471,24.843,0.007,25,0.007,25.235   c0,2.134,0,4.268,0,6.402c0,0.12,0.278,0.108,0.337,0.108c10.275,0,20.551,0,30.826,0c0.214,0,0.823-0.124,0.823-0.419   c0-2.134,0-4.268,0-6.402C31.993,24.805,31.715,24.816,31.656,24.816z M25.08,31.218c-4.403,0-8.807,0-13.21,0   c-2.748,0-7.504,0.999-10.068,0c-1.264-0.492-0.417,0.58-0.636-1.275c-0.176-1.492-0.035-3.081-0.009-4.6   c6.324,0,12.648,0,18.973,0c2.652,0,7.613-1.025,10.068,0c0.315,0.131,0.491,0.161,0.586,0.154   c-0.038,0.099-0.052,0.314,0.049,0.762c0.115,0.508,0.079,3.912,0.249,4.857c-0.275,0.011-0.778,0.12-1.274,0.102   C28.237,31.161,26.653,31.218,25.08,31.218z"/></g></svg>