<svg xmlns="http://www.w3.org/2000/svg" xmlns:xlink="http://www.w3.org/1999/xlink" version="1.1" x="0px" y="0px" viewBox="0 0 100 125" enable-background="new 0 0 100 100" xml:space="preserve"><g><path d="M55.706,26.766c11.837,0.598,23.677,0.432,35.19-0.458c1.218-1.809,2.154-3.199,3.358-4.987   c-1.518-0.625-2.765-1.252-4.082-1.64c-0.785-0.231-1.695-0.207-2.522-0.095c-13.302,1.79-26.587,0.504-39.887-0.053   c-4.875-0.204-9.786,0.321-14.67,0.653c-0.705,0.048-1.357,0.878-3.198,2.152c1.934,1.332,2.944,2.476,4.169,2.797   C41.159,26.997,48.48,26.401,55.706,26.766z"/><path d="M42.203,55.951c2.581-0.63,5.114-0.861,7.747-0.034c1.35,0.424,2.999,0.687,4.307,0.308   c4.57-1.322,9.207-0.685,13.803-0.783c7.737-0.165,15.48-0.045,23.701-0.045c0.874-1.22,1.993-2.783,3.239-4.524   c-2.011-1.142-3.517-1.997-4.932-2.802c-3.094,0.297-5.987,0.61-8.887,0.845c-5.511,0.446-11.023,1.151-16.539,1.2   c-9.897,0.089-19.797-0.286-29.697-0.327c-1.984-0.008-3.971,0.606-6.904,1.089c0.821,1.805,1,3.03,1.511,3.189   C33.657,55.348,37.739,57.041,42.203,55.951z"/><path d="M87.502,76.589c-3.175-0.021-6.376,0.654-9.523,0.428c-9.737-0.7-19.442-0.009-29.159,0.257   c-1.139,0.031-2.331-0.02-3.419-0.32c-4.588-1.266-9.225-0.808-13.856-0.52c-0.482,0.03-0.933,0.567-1.79,1.123   c0.093,0.828,0.21,1.861,0.412,3.653c4.283-0.848,8.006,0.823,12.171,0.508c4.779-0.362,9.658,0.541,14.479-0.335   c10.225,3.332,20.779,0.464,31.132,1.6c2.513,0.276,5.228-0.109,6.957-3.004C93.246,77.205,90.425,76.608,87.502,76.589z"/><path d="M15.933,22.491c-1.804-4.124-4.488-6.602-9.305-5.112C3.631,20.93,5.307,23.915,7.379,27.43   C13.976,26.375,13.976,26.375,15.933,22.491z"/><path d="M13.044,72.588c-1.099-0.167-2.346-0.019-3.404,0.344c-1.917,0.658-3.373,3.661-2.898,6.273   c1.106,1.033,2.538,2.37,3.774,3.525c1.947-0.331,3.372-0.574,5.04-0.858c0.73-1.4,1.521-2.919,2.311-4.435   C16.59,74.432,15.238,72.921,13.044,72.588z"/><path d="M16.243,52.083c-0.094-3.213-2.248-4.433-5.296-5.233c-2.355,0.953-5.533,1.335-4.873,6.158   c1.345,1.006,3.096,2.314,4.609,3.445C14.115,54.846,14.115,54.846,16.243,52.083z"/></g><text x="0" y="115" fill="#000000" font-size="5px" font-weight="bold" font-family="'Helvetica Neue', Helvetica, Arial-Unicode, Arial, Sans-serif">Created by Christopher T. Howlett</text><text x="0" y="120" fill="#000000" font-size="5px" font-weight="bold" font-family="'Helvetica Neue', Helvetica, Arial-Unicode, Arial, Sans-serif">from the Noun Project</text></svg>